<svg width="48" height="29" viewBox="0 0 48 29" fill="none" xmlns="http://www.w3.org/2000/svg">
<path fill-rule="evenodd" clip-rule="evenodd" d="M21.8145 29V27.1549C24.0334 25.8981 25.7845 24.1734 27.0677 21.9806C28.3509 19.7612 28.9925 17.261 28.9925 14.4799C28.9925 11.6989 28.3509 9.21208 27.0677 7.01936C25.7845 4.79991 24.0334 3.07515 21.8145 1.84509V0.721992H29.6742L40.1404 16.7261V0.721992H48V29H40.1404L29.6742 13.1964V29H21.8145Z" fill="white"/>
<path fill-rule="evenodd" clip-rule="evenodd" d="M7.21804 27.1549C9.43692 28.385 11.8697 29 14.5163 29C17.1629 29 19.5957 28.385 21.8145 27.1549V1.84509C19.6224 0.61503 17.1896 0 14.5163 0C11.8697 0 9.43692 0.61503 7.21804 1.84509C4.99916 3.07515 3.23475 4.79991 1.92481 7.01936C0.641604 9.21208 0 11.6989 0 14.4799C0 17.261 0.641604 19.7612 1.92481 21.9806C3.23475 24.1734 4.99916 25.8981 7.21804 27.1549ZM19.2481 19.7344C18.0986 21.0447 16.5213 21.6999 14.5163 21.6999C12.4845 21.6999 10.8939 21.0581 9.74436 19.7746C8.59482 18.4643 8.02005 16.6994 8.02005 14.4799C8.02005 12.2337 8.59482 10.4689 9.74436 9.18534C10.8939 7.87506 12.4845 7.21992 14.5163 7.21992C16.5213 7.21992 18.0986 7.87506 19.2481 9.18534C20.4244 10.4689 21.0125 12.2337 21.0125 14.4799C21.0125 16.6727 20.4244 18.4242 19.2481 19.7344Z" fill="#EC952D"/>
</svg>
